<svg width="22" height="22" viewBox="0 0 22 22" fill="none" xmlns="http://www.w3.org/2000/svg">
<path d="M4.33749 16.525C5.25832 15.8208 6.28749 15.2654 7.42499 14.8588C8.56249 14.4529 9.75416 14.25 11 14.25C12.2458 14.25 13.4375 14.4529 14.575 14.8588C15.7125 15.2654 16.7417 15.8208 17.6625 16.525C18.2944 15.7847 18.7866 14.9451 19.1391 14.0062C19.4908 13.0673 19.6667 12.0653 19.6667 11C19.6667 8.5986 18.8227 6.55363 17.1349 4.86507C15.4464 3.17724 13.4014 2.33332 11 2.33332C8.5986 2.33332 6.55399 3.17724 4.86616 4.86507C3.1776 6.55363 2.33332 8.5986 2.33332 11C2.33332 12.0653 2.50955 13.0673 2.86199 14.0062C3.21371 14.9451 3.70554 15.7847 4.33749 16.525ZM11 12.0833C9.93471 12.0833 9.03627 11.7179 8.30466 10.987C7.57377 10.2554 7.20832 9.35693 7.20832 8.29166C7.20832 7.22638 7.57377 6.32793 8.30466 5.59632C9.03627 4.86543 9.93471 4.49999 11 4.49999C12.0653 4.49999 12.9637 4.86543 13.6953 5.59632C14.4262 6.32793 14.7917 7.22638 14.7917 8.29166C14.7917 9.35693 14.4262 10.2554 13.6953 10.987C12.9637 11.7179 12.0653 12.0833 11 12.0833ZM11 21.8333C9.50138 21.8333 8.09305 21.5488 6.77499 20.9797C5.45693 20.4113 4.31041 19.6396 3.33541 18.6646C2.36041 17.6896 1.58871 16.543 1.02032 15.225C0.451212 13.9069 0.166656 12.4986 0.166656 11C0.166656 9.50138 0.451212 8.09305 1.02032 6.77499C1.58871 5.45693 2.36041 4.31041 3.33541 3.33541C4.31041 2.36041 5.45693 1.58835 6.77499 1.01924C8.09305 0.450851 9.50138 0.166656 11 0.166656C12.4986 0.166656 13.9069 0.450851 15.225 1.01924C16.543 1.58835 17.6896 2.36041 18.6646 3.33541C19.6396 4.31041 20.4113 5.45693 20.9797 6.77499C21.5488 8.09305 21.8333 9.50138 21.8333 11C21.8333 12.4986 21.5488 13.9069 20.9797 15.225C20.4113 16.543 19.6396 17.6896 18.6646 18.6646C17.6896 19.6396 16.543 20.4113 15.225 20.9797C13.9069 21.5488 12.4986 21.8333 11 21.8333ZM11 19.6667C11.9569 19.6667 12.8597 19.5269 13.7083 19.2474C14.5569 18.9672 15.3333 18.5653 16.0375 18.0417C15.3333 17.518 14.5569 17.1161 13.7083 16.8359C12.8597 16.5564 11.9569 16.4167 11 16.4167C10.043 16.4167 9.14027 16.5564 8.29166 16.8359C7.44304 17.1161 6.66666 17.518 5.96249 18.0417C6.66666 18.5653 7.44304 18.9672 8.29166 19.2474C9.14027 19.5269 10.043 19.6667 11 19.6667ZM11 9.91666C11.4694 9.91666 11.8576 9.76318 12.1646 9.45624C12.4715 9.14929 12.625 8.7611 12.625 8.29166C12.625 7.82221 12.4715 7.43402 12.1646 7.12707C11.8576 6.82013 11.4694 6.66666 11 6.66666C10.5305 6.66666 10.1424 6.82013 9.83541 7.12707C9.52846 7.43402 9.37499 7.82221 9.37499 8.29166C9.37499 8.7611 9.52846 9.14929 9.83541 9.45624C10.1424 9.76318 10.5305 9.91666 11 9.91666Z" fill="#F7F7F7"/>
</svg>
