<svg width="32" height="32" viewBox="0 0 32 32" fill="none" xmlns="http://www.w3.org/2000/svg">
<rect width="32" height="32" rx="16" fill="#0129FF"/>
<rect width="32" height="32" rx="16" fill="black" fill-opacity="0.2"/>
<path d="M16 6.83337C10.9583 6.83337 6.83331 10.9584 6.83331 16C6.83331 21.0417 10.9583 25.1667 16 25.1667C21.0416 25.1667 25.1666 21.0417 25.1666 16C25.1666 10.9584 21.0416 6.83337 16 6.83337ZM19.2541 19.4834L15.5141 17.1825C15.2391 17.0175 15.0741 16.7242 15.0741 16.4034V12.1042C15.0833 11.7284 15.395 11.4167 15.7708 11.4167C16.1466 11.4167 16.4583 11.7284 16.4583 12.1042V16.1834L19.9783 18.3009C20.3083 18.5025 20.4183 18.9334 20.2166 19.2634C20.015 19.5842 19.5841 19.685 19.2541 19.4834Z" fill="#F7F7F7"/>
</svg>
