<svg width="34" height="30" viewBox="0 0 34 30" fill="none" xmlns="http://www.w3.org/2000/svg">
<path d="M5.33334 30C3.94445 30 2.7639 29.5139 1.79168 28.5417C0.819455 27.5694 0.333344 26.3889 0.333344 25C0.333344 23.6111 0.819455 22.4306 1.79168 21.4583C2.7639 20.4861 3.94445 20 5.33334 20H28.6667C30.0556 20 31.2361 20.4861 32.2083 21.4583C33.1806 22.4306 33.6667 23.6111 33.6667 25C33.6667 26.3889 33.1806 27.5694 32.2083 28.5417C31.2361 29.5139 30.0556 30 28.6667 30H5.33334ZM5.33334 26.6667H28.6667C29.1389 26.6667 29.5345 26.5067 29.8533 26.1867C30.1733 25.8678 30.3333 25.4722 30.3333 25C30.3333 24.5278 30.1733 24.1322 29.8533 23.8133C29.5345 23.4933 29.1389 23.3333 28.6667 23.3333H5.33334C4.86112 23.3333 4.46501 23.4933 4.14501 23.8133C3.82612 24.1322 3.66668 24.5278 3.66668 25C3.66668 25.4722 3.82612 25.8678 4.14501 26.1867C4.46501 26.5067 4.86112 26.6667 5.33334 26.6667ZM13.6667 16.6667C13.1945 16.6667 12.7989 16.5067 12.48 16.1867C12.16 15.8678 12 15.4722 12 15V1.66667C12 1.19444 12.16 0.798333 12.48 0.478333C12.7989 0.159444 13.1945 0 13.6667 0H27C27.4722 0 27.8678 0.159444 28.1867 0.478333C28.5067 0.798333 28.6667 1.19444 28.6667 1.66667V15C28.6667 15.4722 28.5067 15.8678 28.1867 16.1867C27.8678 16.5067 27.4722 16.6667 27 16.6667H13.6667ZM15.3333 13.3333H25.3333V3.33333H15.3333V13.3333ZM1.91668 13.25C1.47223 13.25 1.09723 13.09 0.791677 12.77C0.486121 12.4511 0.333344 12.0694 0.333344 11.625C0.333344 11.1806 0.493344 10.8056 0.813344 10.5C1.13223 10.1944 1.5139 10.0417 1.95834 10.0417H6.95834C7.40279 10.0417 7.77779 10.1944 8.08334 10.5C8.3889 10.8056 8.54168 11.1806 8.54168 11.625C8.54168 12.0694 8.3889 12.4511 8.08334 12.77C7.77779 13.09 7.40279 13.25 6.95834 13.25H1.91668ZM18.6667 8.33333H22.0417C22.5139 8.33333 22.9028 8.17389 23.2083 7.855C23.5139 7.535 23.6667 7.13889 23.6667 6.66667C23.6667 6.19444 23.5139 5.80556 23.2083 5.5C22.9028 5.19444 22.5139 5.04167 22.0417 5.04167H18.625C18.1528 5.04167 17.7639 5.19444 17.4583 5.5C17.1528 5.80556 17 6.19444 17 6.66667C17 7.13889 17.16 7.535 17.48 7.855C17.7989 8.17389 18.1945 8.33333 18.6667 8.33333ZM5.29168 8.33333C4.81945 8.33333 4.43057 8.17389 4.12501 7.855C3.81945 7.535 3.66668 7.13889 3.66668 6.66667C3.66668 6.19444 3.82612 5.80556 4.14501 5.5C4.46501 5.19444 4.86112 5.04167 5.33334 5.04167H6.91668C7.3889 5.04167 7.77779 5.19444 8.08334 5.5C8.3889 5.80556 8.54168 6.19444 8.54168 6.66667C8.54168 7.13889 8.3889 7.535 8.08334 7.855C7.77779 8.17389 7.3889 8.33333 6.91668 8.33333H5.29168Z" fill="#1F319D"/>
</svg>
