<svg width="28" height="34" viewBox="0 0 28 34" fill="none" xmlns="http://www.w3.org/2000/svg">
<path d="M7.33334 27H20.6667V23.6667H7.33334V27ZM7.33334 20.3333H20.6667V17H7.33334V20.3333ZM4.00001 33.6667C3.08334 33.6667 2.29889 33.3406 1.64667 32.6883C0.993338 32.035 0.666672 31.25 0.666672 30.3333V3.66667C0.666672 2.75 0.993338 1.965 1.64667 1.31167C2.29889 0.659447 3.08334 0.333336 4.00001 0.333336H17.3333L27.3333 10.3333V30.3333C27.3333 31.25 27.0072 32.035 26.355 32.6883C25.7017 33.3406 24.9167 33.6667 24 33.6667H4.00001ZM15.6667 12V3.66667H4.00001V30.3333H24V12H15.6667Z" fill="#1F319D"/>
</svg>
