<svg width="32" height="32" viewBox="0 0 32 32" fill="none" xmlns="http://www.w3.org/2000/svg">
<rect width="32" height="32" rx="16" fill="#0129FF"/>
<rect width="32" height="32" rx="16" fill="black" fill-opacity="0.2"/>
<path d="M17.8333 10.9583V9.12496H14.1666V10.9583H17.8333ZM8.66665 13.7083V21.9583C8.66665 22.4625 9.07915 22.875 9.58331 22.875H22.4166C22.9208 22.875 23.3333 22.4625 23.3333 21.9583V13.7083C23.3333 13.2041 22.9208 12.7916 22.4166 12.7916H9.58331C9.07915 12.7916 8.66665 13.2041 8.66665 13.7083ZM23.3333 10.9583C24.3508 10.9583 25.1666 11.7741 25.1666 12.7916V22.875C25.1666 23.8925 24.3508 24.7083 23.3333 24.7083H8.66665C7.64915 24.7083 6.83331 23.8925 6.83331 22.875L6.84248 12.7916C6.84248 11.7741 7.64915 10.9583 8.66665 10.9583H12.3333V9.12496C12.3333 8.10746 13.1491 7.29163 14.1666 7.29163H17.8333C18.8508 7.29163 19.6666 8.10746 19.6666 9.12496V10.9583H23.3333Z" fill="#F7F7F7"/>
</svg>
