<svg width="20" height="21" viewBox="0 0 20 21" fill="none" xmlns="http://www.w3.org/2000/svg">
<path d="M3.00002 18.1667H6.50002V11.1667H13.5V18.1667H17V7.66671L10 2.41671L3.00002 7.66671V18.1667ZM3.00002 20.5C2.35835 20.5 1.80924 20.2718 1.35269 19.8152C0.895353 19.3579 0.666687 18.8084 0.666687 18.1667V7.66671C0.666687 7.29726 0.74952 6.94726 0.915187 6.61671C1.08008 6.28615 1.30835 6.01393 1.60002 5.80004L8.60002 0.550041C8.81391 0.394485 9.03752 0.277818 9.27085 0.200041C9.50419 0.122263 9.74724 0.083374 10 0.083374C10.2528 0.083374 10.4959 0.122263 10.7292 0.200041C10.9625 0.277818 11.1861 0.394485 11.4 0.550041L18.4 5.80004C18.6917 6.01393 18.9204 6.28615 19.086 6.61671C19.2509 6.94726 19.3334 7.29726 19.3334 7.66671V18.1667C19.3334 18.8084 19.1051 19.3579 18.6485 19.8152C18.1912 20.2718 17.6417 20.5 17 20.5H11.1667V13.5H8.83335V20.5H3.00002Z" fill="#9DA2AE"/>
</svg>
