<svg width="24" height="24" viewBox="0 0 24 24" fill="none" xmlns="http://www.w3.org/2000/svg">
<path d="M3.83334 23.6667C3.19168 23.6667 2.64218 23.4384 2.18484 22.9819C1.72829 22.5245 1.50001 21.975 1.50001 21.3334V8.15004C1.16945 7.93615 0.892566 7.66393 0.669344 7.33337C0.445344 7.00282 0.333344 6.61393 0.333344 6.16671V2.66671C0.333344 2.02504 0.56201 1.47554 1.01934 1.01821C1.4759 0.561652 2.02501 0.333374 2.66668 0.333374H21.3333C21.975 0.333374 22.5245 0.561652 22.9818 1.01821C23.4384 1.47554 23.6667 2.02504 23.6667 2.66671V6.16671C23.6667 6.61393 23.5547 7.00282 23.3307 7.33337C23.1075 7.66393 22.8306 7.93615 22.5 8.15004V21.3334C22.5 21.975 22.2717 22.5245 21.8152 22.9819C21.3578 23.4384 20.8083 23.6667 20.1667 23.6667H3.83334ZM3.83334 8.50004V21.3334H20.1667V8.50004H3.83334ZM21.3333 6.16671V2.66671H2.66668V6.16671H21.3333ZM9.66668 14.3334H14.3333C14.6639 14.3334 14.9412 14.2214 15.1652 13.9974C15.3884 13.7742 15.5 13.4973 15.5 13.1667C15.5 12.8362 15.3884 12.5589 15.1652 12.3349C14.9412 12.1117 14.6639 12 14.3333 12H9.66668C9.33612 12 9.05923 12.1117 8.83601 12.3349C8.61201 12.5589 8.50001 12.8362 8.50001 13.1667C8.50001 13.4973 8.61201 13.7742 8.83601 13.9974C9.05923 14.2214 9.33612 14.3334 9.66668 14.3334Z" fill="red"/>
</svg>
