<svg width="24" height="22" viewBox="0 0 24 22" fill="none" xmlns="http://www.w3.org/2000/svg">
<path d="M3.83334 21.5C2.86112 21.5 2.03473 21.1597 1.35418 20.4792C0.673621 19.7986 0.333344 18.9722 0.333344 18C0.333344 17.0278 0.673621 16.2014 1.35418 15.5208C2.03473 14.8403 2.86112 14.5 3.83334 14.5H20.1667C21.1389 14.5 21.9653 14.8403 22.6458 15.5208C23.3264 16.2014 23.6667 17.0278 23.6667 18C23.6667 18.9722 23.3264 19.7986 22.6458 20.4792C21.9653 21.1597 21.1389 21.5 20.1667 21.5H3.83334ZM3.83334 19.1667H20.1667C20.4972 19.1667 20.7741 19.0547 20.9973 18.8307C21.2213 18.6074 21.3333 18.3306 21.3333 18C21.3333 17.6694 21.2213 17.3926 20.9973 17.1693C20.7741 16.9453 20.4972 16.8333 20.1667 16.8333H3.83334C3.50279 16.8333 3.22551 16.9453 3.00151 17.1693C2.77829 17.3926 2.66668 17.6694 2.66668 18C2.66668 18.3306 2.77829 18.6074 3.00151 18.8307C3.22551 19.0547 3.50279 19.1667 3.83334 19.1667ZM9.66668 12.1667C9.33612 12.1667 9.05923 12.0547 8.83601 11.8307C8.61201 11.6074 8.50001 11.3306 8.50001 11V1.66667C8.50001 1.33611 8.61201 1.05883 8.83601 0.834833C9.05923 0.611611 9.33612 0.5 9.66668 0.5H19C19.3306 0.5 19.6075 0.611611 19.8307 0.834833C20.0547 1.05883 20.1667 1.33611 20.1667 1.66667V11C20.1667 11.3306 20.0547 11.6074 19.8307 11.8307C19.6075 12.0547 19.3306 12.1667 19 12.1667H9.66668ZM10.8333 9.83333H17.8333V2.83333H10.8333V9.83333ZM1.44168 9.775C1.13057 9.775 0.868066 9.663 0.654177 9.439C0.440288 9.21578 0.333344 8.94861 0.333344 8.6375C0.333344 8.32639 0.445344 8.06389 0.669344 7.85C0.892566 7.63611 1.15973 7.52917 1.47084 7.52917H4.97084C5.28195 7.52917 5.54446 7.63611 5.75834 7.85C5.97223 8.06389 6.07918 8.32639 6.07918 8.6375C6.07918 8.94861 5.97223 9.21578 5.75834 9.439C5.54446 9.663 5.28195 9.775 4.97084 9.775H1.44168ZM13.1667 6.33333H15.5292C15.8597 6.33333 16.132 6.22172 16.3458 5.9985C16.5597 5.7745 16.6667 5.49722 16.6667 5.16667C16.6667 4.83611 16.5597 4.56389 16.3458 4.35C16.132 4.13611 15.8597 4.02917 15.5292 4.02917H13.1375C12.807 4.02917 12.5347 4.13611 12.3208 4.35C12.107 4.56389 12 4.83611 12 5.16667C12 5.49722 12.112 5.7745 12.336 5.9985C12.5592 6.22172 12.8361 6.33333 13.1667 6.33333ZM3.80418 6.33333C3.47362 6.33333 3.2014 6.22172 2.98751 5.9985C2.77362 5.7745 2.66668 5.49722 2.66668 5.16667C2.66668 4.83611 2.77829 4.56389 3.00151 4.35C3.22551 4.13611 3.50279 4.02917 3.83334 4.02917H4.94168C5.27223 4.02917 5.54446 4.13611 5.75834 4.35C5.97223 4.56389 6.07918 4.83611 6.07918 5.16667C6.07918 5.49722 5.97223 5.7745 5.75834 5.9985C5.54446 6.22172 5.27223 6.33333 4.94168 6.33333H3.80418Z" fill="#9DA2AE"/>
</svg>
