<svg width="26" height="22" viewBox="0 0 26 22" fill="none" xmlns="http://www.w3.org/2000/svg">
<path d="M11.7459 10.0958L10.0834 8.43333C9.96669 8.31667 9.8403 8.22917 9.70419 8.17083C9.56808 8.1125 9.42691 8.08333 9.28069 8.08333C9.13524 8.08333 8.9898 8.1125 8.84435 8.17083C8.69813 8.22917 8.56669 8.31667 8.45002 8.43333C8.23613 8.64722 8.12919 8.91944 8.12919 9.25C8.12919 9.58055 8.23613 9.85278 8.45002 10.0667L10.9292 12.575C11.1625 12.8083 11.4347 12.925 11.7459 12.925C12.057 12.925 12.3292 12.8083 12.5625 12.575L17.9875 7.61667C17.9875 7.30556 17.9681 7.00417 17.9292 6.7125C17.8903 6.42083 17.7639 6.16806 17.55 5.95417C17.3167 5.72083 17.0398 5.60417 16.7194 5.60417C16.3981 5.60417 16.1209 5.72083 15.8875 5.95417L11.7459 10.0958ZM0.166687 21.5V19.1667H24.6667C24.9972 19.1667 25.2741 19.2787 25.4974 19.5027C25.7214 19.7259 25.8334 20.0028 25.8334 20.3333C25.8334 20.6639 25.7214 20.9408 25.4974 21.164C25.2741 21.388 24.9972 21.5 24.6667 21.5H0.166687ZM3.66669 18C3.02502 18 2.47591 17.7717 2.01935 17.3152C1.56202 16.8578 1.33335 16.3083 1.33335 15.6667V2.83333C1.33335 2.19167 1.56202 1.64217 2.01935 1.18483C2.47591 0.728278 3.02502 0.5 3.66669 0.5H22.3334C22.975 0.5 23.5245 0.728278 23.9819 1.18483C24.4384 1.64217 24.6667 2.19167 24.6667 2.83333V15.6667C24.6667 16.3083 24.4384 16.8578 23.9819 17.3152C23.5245 17.7717 22.975 18 22.3334 18H3.66669ZM3.66669 15.6667H22.3334V2.83333H3.66669V15.6667Z" fill="#9DA2AE"/>
</svg>
