<svg width="20" height="20" viewBox="0 0 20 20" fill="none" xmlns="http://www.w3.org/2000/svg">
<path d="M2.99999 19.3333C2.35832 19.3333 1.80921 19.105 1.35266 18.6485C0.895323 18.1911 0.666656 17.6416 0.666656 17C0.666656 16.3583 0.895323 15.8088 1.35266 15.3515C1.80921 14.8949 2.35832 14.6666 2.99999 14.6666C3.64166 14.6666 4.19077 14.8949 4.64732 15.3515C5.10466 15.8088 5.33332 16.3583 5.33332 17C5.33332 17.6416 5.10466 18.1911 4.64732 18.6485C4.19077 19.105 3.64166 19.3333 2.99999 19.3333ZM2.99999 12.3333C2.35832 12.3333 1.80921 12.1046 1.35266 11.6473C0.895323 11.1907 0.666656 10.6416 0.666656 9.99996C0.666656 9.35829 0.895323 8.80879 1.35266 8.35146C1.80921 7.8949 2.35832 7.66663 2.99999 7.66663C3.64166 7.66663 4.19077 7.8949 4.64732 8.35146C5.10466 8.80879 5.33332 9.35829 5.33332 9.99996C5.33332 10.6416 5.10466 11.1907 4.64732 11.6473C4.19077 12.1046 3.64166 12.3333 2.99999 12.3333ZM2.99999 5.33329C2.35832 5.33329 1.80921 5.10463 1.35266 4.64729C0.895323 4.19074 0.666656 3.64163 0.666656 2.99996C0.666656 2.35829 0.895323 1.80918 1.35266 1.35263C1.80921 0.895292 2.35832 0.666626 2.99999 0.666626C3.64166 0.666626 4.19077 0.895292 4.64732 1.35263C5.10466 1.80918 5.33332 2.35829 5.33332 2.99996C5.33332 3.64163 5.10466 4.19074 4.64732 4.64729C4.19077 5.10463 3.64166 5.33329 2.99999 5.33329ZM9.99999 12.3333C9.35832 12.3333 8.80921 12.1046 8.35266 11.6473C7.89532 11.1907 7.66666 10.6416 7.66666 9.99996C7.66666 9.35829 7.89532 8.80879 8.35266 8.35146C8.80921 7.8949 9.35832 7.66663 9.99999 7.66663C10.6417 7.66663 11.1912 7.8949 11.6485 8.35146C12.105 8.80879 12.3333 9.35829 12.3333 9.99996L9.99999 12.3333ZM9.99999 5.33329C9.35832 5.33329 8.80921 5.10463 8.35266 4.64729C7.89532 4.19074 7.66666 3.64163 7.66666 2.99996C7.66666 2.35829 7.89532 1.80918 8.35266 1.35263C8.80921 0.895292 9.35832 0.666626 9.99999 0.666626C10.6417 0.666626 11.1912 0.895292 11.6485 1.35263C12.105 1.80918 12.3333 2.35829 12.3333 2.99996C12.3333 3.64163 12.105 4.19074 11.6485 4.64729C11.1912 5.10463 10.6417 5.33329 9.99999 5.33329ZM9.41666 19.3333C9.2611 19.3333 9.12499 19.275 9.00832 19.1583C8.89165 19.0416 8.83332 18.9055 8.83332 18.75V17.0875C8.83332 17.0486 8.89165 16.9125 9.00832 16.6791L15.0167 10.6708L17.4958 13.15L11.4875 19.1583C11.4486 19.1972 11.3125 19.2555 11.0792 19.3333H9.41666ZM17 5.33329C16.3583 5.33329 15.8088 5.10463 15.3515 4.64729C14.8949 4.19074 14.6667 3.64163 14.6667 2.99996C14.6667 2.35829 14.8949 1.80918 15.3515 1.35263C15.8088 0.895292 16.3583 0.666626 17 0.666626C17.6417 0.666626 18.1912 0.895292 18.6485 1.35263C19.105 1.80918 19.3333 2.35829 19.3333 2.99996C19.3333 3.64163 19.105 4.19074 18.6485 4.64729C18.1912 5.10463 17.6417 5.33329 17 5.33329ZM18.3125 12.3333L15.8333 9.85413L16.6792 9.00829C16.9125 8.77496 17.1898 8.65829 17.511 8.65829C17.8314 8.65829 18.0986 8.77496 18.3125 9.00829L19.1583 9.85413C19.3917 10.068 19.5083 10.3352 19.5083 10.6556C19.5083 10.9768 19.3917 11.2541 19.1583 11.4875L18.3125 12.3333Z" fill="#9DA2AE"/>
</svg>
