<svg width="24" height="24" viewBox="0 0 24 24" fill="none" xmlns="http://www.w3.org/2000/svg">
<path d="M6.16668 7.33337C5.52501 7.33337 4.9759 7.10471 4.51934 6.64737C4.06201 6.19082 3.83334 5.64171 3.83334 5.00004V2.66671C3.83334 2.02504 4.06201 1.47554 4.51934 1.01821C4.9759 0.561652 5.52501 0.333374 6.16668 0.333374H17.8333C18.475 0.333374 19.0245 0.561652 19.4818 1.01821C19.9384 1.47554 20.1667 2.02504 20.1667 2.66671V5.00004C20.1667 5.64171 19.9384 6.19082 19.4818 6.64737C19.0245 7.10471 18.475 7.33337 17.8333 7.33337H6.16668ZM6.75001 5.00004H17.25C17.4056 5.00004 17.5417 4.94171 17.6583 4.82504C17.775 4.70837 17.8333 4.57226 17.8333 4.41671V3.25004C17.8333 3.09449 17.775 2.95837 17.6583 2.84171C17.5417 2.72504 17.4056 2.66671 17.25 2.66671H6.75001C6.59446 2.66671 6.45834 2.72504 6.34168 2.84171C6.22501 2.95837 6.16668 3.09449 6.16668 3.25004V4.41671C6.16668 4.57226 6.22501 4.70837 6.34168 4.82504C6.45834 4.94171 6.59446 5.00004 6.75001 5.00004ZM2.66668 23.6667C2.02501 23.6667 1.4759 23.4384 1.01934 22.9819C0.56201 22.5245 0.333344 21.975 0.333344 21.3334V20.1667H23.6667V21.3334C23.6667 21.975 23.4384 22.5245 22.9818 22.9819C22.5245 23.4384 21.975 23.6667 21.3333 23.6667H2.66668ZM0.333344 19L4.38751 9.87088C4.58195 9.4431 4.86895 9.10749 5.24851 8.86404C5.62729 8.62138 6.05001 8.50004 6.51668 8.50004H17.4833C17.95 8.50004 18.3731 8.62138 18.7527 8.86404C19.1315 9.10749 19.4181 9.4431 19.6125 9.87088L23.6667 19H0.333344ZM7.91668 16.6667H9.08334C9.2389 16.6667 9.37501 16.6084 9.49168 16.4917C9.60835 16.375 9.66668 16.2389 9.66668 16.0834C9.66668 15.9278 9.60835 15.7917 9.49168 15.675C9.37501 15.5584 9.2389 15.5 9.08334 15.5H7.91668C7.76112 15.5 7.62501 15.5584 7.50834 15.675C7.39168 15.7917 7.33334 15.9278 7.33334 16.0834C7.33334 16.2389 7.39168 16.375 7.50834 16.4917C7.62501 16.6084 7.76112 16.6667 7.91668 16.6667ZM7.91668 14.3334H9.08334C9.2389 14.3334 9.37501 14.275 9.49168 14.1584C9.60835 14.0417 9.66668 13.9056 9.66668 13.75C9.66668 13.5945 9.60835 13.4584 9.49168 13.3417C9.37501 13.225 9.2389 13.1667 9.08334 13.1667H7.91668C7.76112 13.1667 7.62501 13.225 7.50834 13.3417C7.39168 13.4584 7.33334 13.5945 7.33334 13.75C7.33334 13.9056 7.39168 14.0417 7.50834 14.1584C7.62501 14.275 7.76112 14.3334 7.91668 14.3334ZM7.91668 12H9.08334C9.2389 12 9.37501 11.9417 9.49168 11.825C9.60835 11.7084 9.66668 11.5723 9.66668 11.4167C9.66668 11.2612 9.60835 11.125 9.49168 11.0084C9.37501 10.8917 9.2389 10.8334 9.08334 10.8334H7.91668C7.76112 10.8334 7.62501 10.8917 7.50834 11.0084C7.39168 11.125 7.33334 11.2612 7.33334 11.4167C7.33334 11.5723 7.39168 11.7084 7.50834 11.825C7.62501 11.9417 7.76112 12 7.91668 12ZM11.4167 16.6667H12.5833C12.7389 16.6667 12.875 16.6084 12.9917 16.4917C13.1083 16.375 13.1667 16.2389 13.1667 16.0834C13.1667 15.9278 13.1083 15.7917 12.9917 15.675C12.875 15.5584 12.7389 15.5 12.5833 15.5H11.4167C11.2611 15.5 11.125 15.5584 11.0083 15.675C10.8917 15.7917 10.8333 15.9278 10.8333 16.0834C10.8333 16.2389 10.8917 16.375 11.0083 16.4917C11.125 16.6084 11.2611 16.6667 11.4167 16.6667ZM11.4167 14.3334H12.5833C12.7389 14.3334 12.875 14.275 12.9917 14.1584C13.1083 14.0417 13.1667 13.9056 13.1667 13.75C13.1667 13.5945 13.1083 13.4584 12.9917 13.3417C12.875 13.225 12.7389 13.1667 12.5833 13.1667H11.4167C11.2611 13.1667 11.125 13.225 11.0083 13.3417C10.8917 13.4584 10.8333 13.5945 10.8333 13.75C10.8333 13.9056 10.8917 14.0417 11.0083 14.1584C11.125 14.275 11.2611 14.3334 11.4167 14.3334ZM11.4167 12H12.5833C12.7389 12 12.875 11.9417 12.9917 11.825C13.1083 11.7084 13.1667 11.5723 13.1667 11.4167C13.1667 11.2612 13.1083 11.125 12.9917 11.0084C12.875 10.8917 12.7389 10.8334 12.5833 10.8334H11.4167C11.2611 10.8334 11.125 10.8917 11.0083 11.0084C10.8917 11.125 10.8333 11.2612 10.8333 11.4167C10.8333 11.5723 10.8917 11.7084 11.0083 11.825C11.125 11.9417 11.2611 12 11.4167 12ZM14.9167 16.6667H16.0833C16.2389 16.6667 16.375 16.6084 16.4917 16.4917C16.6083 16.375 16.6667 16.2389 16.6667 16.0834C16.6667 15.9278 16.6083 15.7917 16.4917 15.675C16.375 15.5584 16.2389 15.5 16.0833 15.5H14.9167C14.7611 15.5 14.625 15.5584 14.5083 15.675C14.3917 15.7917 14.3333 15.9278 14.3333 16.0834C14.3333 16.2389 14.3917 16.375 14.5083 16.4917C14.625 16.6084 14.7611 16.6667 14.9167 16.6667ZM14.9167 14.3334H16.0833C16.2389 14.3334 16.375 14.275 16.4917 14.1584C16.6083 14.0417 16.6667 13.9056 16.6667 13.75C16.6667 13.5945 16.6083 13.4584 16.4917 13.3417C16.375 13.225 16.2389 13.1667 16.0833 13.1667H14.9167C14.7611 13.1667 14.625 13.225 14.5083 13.3417C14.3917 13.4584 14.3333 13.5945 14.3333 13.75C14.3333 13.9056 14.3917 14.0417 14.5083 14.1584C14.625 14.275 14.7611 14.3334 14.9167 14.3334ZM14.9167 12H16.0833C16.2389 12 16.375 11.9417 16.4917 11.825C16.6083 11.7084 16.6667 11.5723 16.6667 11.4167C16.6667 11.2612 16.6083 11.125 16.4917 11.0084C16.375 10.8917 16.2389 10.8334 16.0833 10.8334H14.9167C14.7611 10.8334 14.625 10.8917 14.5083 11.0084C14.3917 11.125 14.3333 11.2612 14.3333 11.4167C14.3333 11.5723 14.3917 11.7084 14.5083 11.825C14.625 11.9417 14.7611 12 14.9167 12Z" fill="#9DA2AE"/>
</svg>
