<svg width="38" height="30" viewBox="0 0 38 30" fill="none" xmlns="http://www.w3.org/2000/svg">
<path d="M17.2083 13.7083L14.8333 11.3333C14.6667 11.1667 14.4861 11.0416 14.2917 10.9583C14.0972 10.875 13.8956 10.8333 13.6867 10.8333C13.4789 10.8333 13.2711 10.875 13.0633 10.9583C12.8544 11.0416 12.6667 11.1667 12.5 11.3333C12.1945 11.6389 12.0417 12.0278 12.0417 12.5C12.0417 12.9722 12.1945 13.3611 12.5 13.6666L16.0417 17.25C16.375 17.5833 16.7639 17.75 17.2083 17.75C17.6528 17.75 18.0417 17.5833 18.375 17.25L26.125 10.1667C26.125 9.72221 26.0972 9.29165 26.0417 8.87498C25.9861 8.45832 25.8056 8.09721 25.5 7.79165C25.1667 7.45832 24.7711 7.29165 24.3133 7.29165C23.8545 7.29165 23.4583 7.45832 23.125 7.79165L17.2083 13.7083ZM0.666672 30V26.6666H35.6667C36.1389 26.6666 36.5345 26.8266 36.8533 27.1466C37.1733 27.4655 37.3333 27.8611 37.3333 28.3333C37.3333 28.8055 37.1733 29.2011 36.8533 29.52C36.5345 29.84 36.1389 30 35.6667 30H0.666672ZM5.66667 25C4.75001 25 3.96556 24.6739 3.31334 24.0216C2.66001 23.3683 2.33334 22.5833 2.33334 21.6666V3.33332C2.33334 2.41665 2.66001 1.63165 3.31334 0.978318C3.96556 0.326096 4.75001 -1.52588e-05 5.66667 -1.52588e-05H32.3333C33.25 -1.52588e-05 34.035 0.326096 34.6883 0.978318C35.3406 1.63165 35.6667 2.41665 35.6667 3.33332V21.6666C35.6667 22.5833 35.3406 23.3683 34.6883 24.0216C34.035 24.6739 33.25 25 32.3333 25H5.66667ZM5.66667 21.6666H32.3333V3.33332H5.66667V21.6666Z" fill="#1F319D"/>
</svg>
